<?xml version="1.0" standalone="no"?>
<!DOCTYPE svg PUBLIC "-//W3C//DTD SVG 20010904//EN"
 "http://www.w3.org/TR/2001/REC-SVG-20010904/DTD/svg10.dtd">
<svg version="1.0" xmlns="http://www.w3.org/2000/svg"
 width="175.000000pt" height="30.000000pt" viewBox="0 0 175.000000 30.000000"
 preserveAspectRatio="xMidYMid meet">

<g transform="translate(0.000000,30.000000) scale(0.100000,-0.100000)"
fill="#000000" stroke="none">
<path d="M237 223 c-10 -16 -38 -135 -33 -141 3 -2 8 1 10 9 29 83 43 164 23
132z"/>
<path d="M542 220 c-43 -18 -50 -81 -14 -122 20 -24 74 -23 96 1 22 24 3 39
-20 17 -22 -23 -41 -20 -60 9 -14 21 -15 31 -6 50 12 26 55 35 67 15 9 -15 25
-12 25 5 0 9 -12 20 -26 25 -30 12 -32 12 -62 0z"/>
<path d="M860 207 c0 -20 -4 -23 -30 -19 -25 4 -31 0 -40 -23 -7 -17 -7 -38
-2 -54 8 -23 15 -26 55 -28 l47 -2 0 75 c0 59 -3 74 -15 74 -9 0 -15 -9 -15
-23z m-5 -72 c0 -33 -28 -47 -39 -19 -10 25 3 56 22 52 11 -2 17 -13 17 -33z"/>
<path d="M920 220 c0 -5 7 -10 15 -10 8 0 15 5 15 10 0 6 -7 10 -15 10 -8 0
-15 -4 -15 -10z"/>
<path d="M1452 155 c1 -72 1 -75 8 -30 3 27 3 63 -1 80 -5 20 -7 3 -7 -50z"/>
<path d="M1684 208 c-11 -29 -6 -128 7 -128 5 0 9 22 9 49 0 30 5 51 13 54 10
4 10 6 0 6 -7 1 -13 7 -13 15 0 8 6 17 13 19 8 4 6 6 -4 6 -9 1 -20 -9 -25
-21z"/>
<path d="M1304 196 c-32 -50 -1 -116 54 -116 21 0 75 39 56 40 -6 0 -17 -7
-24 -15 -16 -19 -44 -19 -64 1 -19 18 -21 75 -4 92 16 16 60 15 77 0 11 -11
13 -10 9 2 -3 9 -20 16 -46 18 -35 3 -43 -1 -58 -22z"/>
<path d="M72 180 c-23 -11 -42 -25 -42 -32 0 -14 89 -52 98 -43 3 3 -13 13
-36 22 -47 18 -52 28 -19 36 24 7 68 37 52 36 -5 0 -29 -9 -53 -19z"/>
<path d="M335 184 c11 -8 30 -17 43 -21 32 -8 27 -18 -20 -36 -23 -9 -39 -19
-36 -22 9 -9 98 29 98 43 0 7 -21 22 -46 32 -54 24 -66 25 -39 4z"/>
<path d="M663 164 c-15 -24 -15 -29 -2 -53 17 -31 68 -41 89 -16 16 19 16 60
0 80 -20 25 -67 19 -87 -11z m67 -29 c0 -28 -4 -35 -19 -35 -10 0 -22 7 -25
16 -10 26 3 54 25 54 15 0 19 -7 19 -35z"/>
<path d="M920 135 c0 -42 3 -55 15 -55 12 0 15 13 15 55 0 42 -3 55 -15 55
-12 0 -15 -13 -15 -55z"/>
<path d="M980 133 c0 -40 4 -53 14 -53 10 0 16 14 18 43 2 29 8 42 18 42 10 0
16 -13 18 -42 2 -29 8 -43 18 -43 10 0 14 12 14 43 0 57 -8 66 -58 64 l-42 -1
0 -53z"/>
<path d="M1112 178 c-17 -17 -15 -73 3 -88 9 -7 25 -10 40 -6 24 6 25 5 15
-14 -9 -17 -14 -18 -31 -9 -23 12 -38 4 -22 -12 6 -6 26 -9 44 -7 l34 3 3 71
3 71 -39 1 c-21 1 -44 -4 -50 -10z m61 -28 c6 -23 -16 -56 -31 -46 -13 8 -16
48 -5 59 13 13 31 7 36 -13z"/>
<path d="M1495 181 c15 -6 22 -21 26 -57 l6 -49 -1 55 c-1 51 -3 55 -26 57
-22 2 -23 2 -5 -6z"/>
<path d="M1572 178 c-7 -7 -12 -26 -12 -43 0 -17 5 -36 12 -43 15 -15 55 -16
64 -1 4 8 -1 9 -15 4 -22 -7 -51 9 -51 26 0 5 18 9 40 9 41 0 47 8 30 41 -12
21 -50 25 -68 7z m56 -20 c3 -14 -3 -18 -27 -18 -34 0 -34 0 -25 25 8 21 48
16 52 -7z"/>
</g>
</svg>
